<?xml version="1.0" standalone="no"?>
<!DOCTYPE svg PUBLIC "-//W3C//DTD SVG 20010904//EN"
 "http://www.w3.org/TR/2001/REC-SVG-20010904/DTD/svg10.dtd">
<svg version="1.0" xmlns="http://www.w3.org/2000/svg"
 width="700.000000pt" height="700.000000pt" viewBox="0 0 700.000000 700.000000"
 preserveAspectRatio="xMidYMid meet">
<metadata>
Created by potrace 1.14, written by Peter Selinger 2001-2017
</metadata>
<g transform="translate(0.000000,700.000000) scale(0.100000,-0.100000)"
fill="#000000" stroke="none">
<path d="M1085 6036 c-80 -35 -135 -116 -135 -199 0 -24 9 -79 21 -123 20 -78
25 -97 33 -131 3 -10 12 -47 21 -83 8 -36 17 -72 19 -80 2 -8 21 -80 41 -160
20 -80 38 -153 40 -163 2 -10 7 -27 10 -37 3 -10 8 -27 10 -37 2 -10 22 -92
45 -183 23 -91 43 -173 46 -182 2 -10 6 -26 8 -35 2 -10 32 -128 66 -263 34
-135 63 -252 65 -260 2 -8 35 -143 75 -300 39 -157 73 -292 75 -300 2 -12 88
-354 111 -442 2 -10 6 -26 8 -35 3 -10 12 -47 21 -83 8 -36 17 -72 19 -80 2
-8 21 -80 41 -160 20 -80 38 -152 40 -160 2 -8 20 -80 40 -160 20 -80 38 -152
40 -160 2 -12 90 -359 111 -443 2 -9 6 -25 8 -35 3 -9 12 -46 21 -82 8 -36 17
-72 19 -80 2 -8 21 -80 41 -160 20 -80 38 -152 40 -160 42 -199 76 -258 172
-296 92 -36 203 0 257 84 15 23 63 174 126 392 56 195 103 362 105 370 2 8 60
213 130 455 70 242 137 478 150 525 13 47 49 173 80 280 31 107 63 220 71 250
8 30 21 76 30 101 8 25 16 56 19 68 2 12 15 59 28 104 14 45 27 91 30 102 3
11 26 92 52 180 26 88 48 167 50 175 16 70 111 390 116 390 4 0 9 -12 12 -27
3 -16 218 -774 480 -1686 520 -1816 483 -1704 577 -1754 74 -39 172 -28 240
29 43 36 70 102 105 258 2 8 16 62 30 120 15 58 28 112 31 120 2 8 24 98 49
200 26 102 48 192 50 200 2 8 20 80 40 160 20 80 38 152 40 160 2 8 38 152 80
320 42 168 79 313 81 324 2 10 10 42 18 70 8 28 17 65 21 83 3 18 9 43 15 57
5 15 7 26 5 26 -2 0 0 11 5 26 6 14 12 37 15 52 2 15 13 57 24 95 11 37 18 67
16 67 -3 0 0 11 5 25 5 14 12 36 14 48 3 12 26 105 52 207 25 102 47 192 49
200 2 8 16 62 30 120 15 58 28 112 30 120 2 8 56 224 120 480 65 256 118 470
119 475 1 6 5 19 9 30 3 11 8 31 11 45 3 14 39 162 81 330 42 168 79 314 82
325 14 56 14 133 1 165 -52 124 -186 174 -304 115 -88 -44 -91 -53 -215 -546
-61 -244 -113 -451 -114 -459 -2 -8 -59 -233 -125 -500 -67 -267 -123 -492
-125 -500 -2 -8 -54 -215 -115 -460 -62 -245 -113 -452 -115 -460 -2 -8 -64
-256 -138 -550 l-134 -535 -21 70 c-11 39 -224 781 -472 1650 -248 869 -455
1592 -461 1606 -26 65 -124 129 -199 129 -66 0 -147 -45 -185 -104 -13 -19
-48 -126 -82 -251 -3 -11 -39 -137 -80 -280 -41 -143 -85 -298 -98 -345 -13
-47 -135 -472 -270 -945 -136 -473 -248 -868 -250 -878 -2 -10 -15 -55 -28
-100 -14 -45 -27 -91 -30 -102 -17 -66 -116 -404 -124 -425 -10 -23 -10 -22
-18 15 -11 53 -8 40 -50 205 -20 80 -38 152 -40 160 -3 13 -17 71 -29 120 -2
8 -14 53 -26 100 -12 47 -23 92 -25 100 -2 8 -33 134 -70 280 -36 146 -68 272
-70 281 -2 8 -26 107 -55 220 -29 112 -54 212 -56 222 -2 9 -6 25 -8 35 -2 9
-9 37 -16 62 -7 25 -14 52 -15 60 -4 15 -32 131 -40 163 -3 9 -7 25 -9 35 -2
9 -23 91 -46 182 -23 91 -43 172 -45 181 -2 9 -33 135 -70 280 -66 262 -71
280 -79 319 -3 11 -12 48 -21 83 -9 34 -18 69 -20 77 -2 8 -13 53 -25 100 -11
47 -23 92 -25 100 -2 8 -15 62 -30 120 -27 104 -31 121 -39 160 -3 11 -12 48
-21 83 -9 34 -19 72 -21 84 -13 68 -66 136 -129 164 -47 22 -127 24 -170 5z"/>
</g>
</svg>
