<?xml version="1.0" standalone="no"?>
<!DOCTYPE svg PUBLIC "-//W3C//DTD SVG 20010904//EN"
 "http://www.w3.org/TR/2001/REC-SVG-20010904/DTD/svg10.dtd">
<svg version="1.0" xmlns="http://www.w3.org/2000/svg"
 width="1000.000000pt" height="1000.000000pt" viewBox="0 0 1000.000000 1000.000000"
 preserveAspectRatio="xMidYMid meet">

<g transform="translate(0.000000,1000.000000) scale(0.100000,-0.100000)"
fill="#000000" stroke="none">
<path d="M80 9313 c15 -43 735 -2008 1599 -4368 864 -2360 1574 -4297 1578
-4305 5 -13 234 664 425 1257 l61 192 -35 98 c-20 54 -79 215 -131 358 -53
143 -139 379 -192 525 -53 146 -102 281 -110 300 -8 19 -56 152 -109 295 -198
542 -321 878 -589 1610 -53 143 -146 397 -207 565 -61 168 -154 422 -207 565
-52 143 -135 370 -185 505 -49 135 -138 378 -198 540 -59 162 -148 405 -197
540 -50 135 -138 376 -196 535 -191 520 -308 840 -312 853 -3 9 -115 12 -514
12 l-510 0 29 -77z"/>
<path d="M8181 7927 c-294 -804 -619 -1695 -723 -1979 l-188 -517 70 -208 c39
-114 102 -300 140 -413 38 -113 114 -337 169 -498 54 -161 101 -296 105 -299
3 -3 8 0 10 8 7 19 171 469 266 729 43 118 115 316 161 440 96 265 263 723
354 970 35 96 107 294 160 440 53 146 102 281 110 300 7 19 50 134 94 255 164
452 523 1436 652 1785 70 193 159 441 159 447 0 2 -226 3 -502 3 l-503 0 -534
-1463z"/>
<path d="M4410 7329 c-327 -963 -606 -1784 -620 -1825 -28 -86 -43 -27 115
-459 142 -386 286 -779 333 -910 22 -60 44 -111 49 -112 6 -2 26 45 46 104 48
144 168 496 322 948 69 204 153 449 185 545 33 96 125 369 205 605 81 237 159
468 175 515 16 47 86 252 156 455 69 204 129 382 131 396 5 25 -484 1489 -496
1489 -3 0 -274 -788 -601 -1751z"/>
<path d="M5942 5707 c-60 -184 -356 -1087 -410 -1249 l-35 -107 623 -1866
c343 -1026 627 -1862 630 -1858 4 4 125 329 268 721 l261 714 -580 1736 c-319
956 -605 1812 -635 1905 -31 92 -59 167 -62 167 -4 0 -31 -73 -60 -163z"/>
</g>
</svg>
